<svg xmlns="http://www.w3.org/2000/svg" viewBox="0 0 314.64 75.47"><defs><style>.cls-1{fill:#4f1b1d;}</style></defs><title>tooltarto</title><g id="Layer_2" data-name="Layer 2"><g id="fej"><path class="cls-1" d="M46.3,6.34a2.24,2.24,0,0,1,.9,1.26,1.93,1.93,0,0,1-.3,1.56,4.53,4.53,0,0,1-1.21,1.31q-.7.5-1.51,1a16.29,16.29,0,0,1-4,1.66q-2.06.55-4.17,1-1.21.2-2.46.35T31,14.78q-2.41,10.35-4.22,20.64T22.9,56.06q-.2.8-.35,1.51T22.2,59v.1q-.1.5-.3,1.31a1.12,1.12,0,0,1-.05.35,1.09,1.09,0,0,0-.05.35,3.15,3.15,0,0,0-.2.9v.1q-.4,1.41-.7,2.81l-.6,2.81a16.92,16.92,0,0,1-.9,2.61,2.21,2.21,0,0,1-1.81,1.31,8.23,8.23,0,0,1-.1-1.51.41.41,0,0,0-.3.1,15.64,15.64,0,0,1-1.91,1.41c-.13.07-.27,0-.4-.2s-.27-.27-.4-.2-.29.1-.45.3a1.54,1.54,0,0,1-.45.4q-.8.4-1.15-.3a7.68,7.68,0,0,1-.35-2.91,12.23,12.23,0,0,1-.35,1.21c-.1.27-.19.5-.25.7a4.11,4.11,0,0,1-1.05-1.56,3.75,3.75,0,0,1,0-1.86,10.34,10.34,0,0,0,.15-1.1,9.68,9.68,0,0,1,.15-1.1v-.2l.6-3q.3-1.51.6-3.11c.13-.6.27-1.22.4-1.86s.27-1.29.4-2q1.61-7.23,3.11-14.46l3-14.46q.5-2.31,1-4.47t1-4.37a4.27,4.27,0,0,0,.1-1q-1.31,0-2.56-.05a22.34,22.34,0,0,0-2.56.05q-2.61,0-5.22-.25a16.55,16.55,0,0,1-5.12-1.36Q4.12,13.88,3,13.17a6.72,6.72,0,0,1-2-1.81q-.3-.4-.55-.8T0,9.76A2.36,2.36,0,0,1,1.46,8.45a4.83,4.83,0,0,1,2,0,19.08,19.08,0,0,0,2.71.2q1.3,0,2.71-.1Q15.17,8.05,21.39,7A121.42,121.42,0,0,0,33.75,4.23l2.16-.6q1.05-.3,2.16-.5l1.21-.2q.6-.1,1,.7a1,1,0,0,0,.7.2,2.26,2.26,0,0,1,1.86,0,8.32,8.32,0,0,0,1.76.6,1.85,1.85,0,0,1,.85.4,1.13,1.13,0,0,1,.35.9C45.8,5.81,46,6,46.3,6.34Z"/><path class="cls-1" d="M52.83,28.64a10.22,10.22,0,0,0,1.76,0,5.52,5.52,0,0,1,1.66.15q1.1.2,2.16.35a17.78,17.78,0,0,1,2.16.45,6.9,6.9,0,0,1,5,5.83,23.19,23.19,0,0,1,.25,4,32.79,32.79,0,0,1-.35,4,67.92,67.92,0,0,1-2.21,8.89,46.42,46.42,0,0,1-3.72,8.49q-1.31,2.21-2.76,4.27a25.09,25.09,0,0,1-3.26,3.77,12.92,12.92,0,0,1-4.47,2.81A18.84,18.84,0,0,1,44,72.84a8,8,0,0,1-6.83-3.52A15.38,15.38,0,0,1,35.41,66a25.75,25.75,0,0,1-1.05-3.67,33.72,33.72,0,0,1-.2-12.15A79.69,79.69,0,0,1,36.26,41a58.66,58.66,0,0,1,3.31-8.64,15.21,15.21,0,0,1,1.21-2.16q.7-1.05,1.41-2.16A5,5,0,0,1,44,26.18a8.07,8.07,0,0,1,2.46-.9,8.31,8.31,0,0,1,2.56-.1,13.5,13.5,0,0,1,2.26.45,2.73,2.73,0,0,1,1.21.8,1.86,1.86,0,0,1,.3,1.41ZM36.36,52.45l.9-4.52.4-2.21.4-2.21a9.91,9.91,0,0,0-.85,2.16,23,23,0,0,0-.55,2.51q-.2,1.26-.3,2.41A8.63,8.63,0,0,0,36.36,52.45Zm4.82,3.11h.1a3.08,3.08,0,0,0-.1-.9h-.1A3.08,3.08,0,0,1,41.18,55.56Zm1.1-.9a.09.09,0,0,1-.1.1,3.08,3.08,0,0,1,.1.9h.1A4.28,4.28,0,0,0,42.29,54.66Zm.7-4.72a.2.2,0,0,1-.15-.05.21.21,0,0,0-.15-.05c0,.34,0,.67-.05,1s-.08.67-.15,1h.3c.07-.33.12-.65.15-1A8.82,8.82,0,0,0,43,49.93Zm3.82-13.06a72.42,72.42,0,0,0-2.31,8,55.48,55.48,0,0,0-1.21,8.24,39.06,39.06,0,0,0-.1,4.87,22.39,22.39,0,0,0,.7,4.77q.3,1,.6,1.86a5.1,5.1,0,0,0,1,1.66A2.3,2.3,0,0,0,46,66a5.55,5.55,0,0,0,.4-.45,5.41,5.41,0,0,1,.4-.45A33,33,0,0,0,52.93,54a48.27,48.27,0,0,0,1.76-7.63,29.27,29.27,0,0,0,.05-7.83,10.47,10.47,0,0,0-.6-2.51,3.12,3.12,0,0,1-1,.5,1,1,0,0,0-.9-.15l-.9.35q-.7.4-1.56.8T48,36.88a.46.46,0,0,0-.5-.1A2.22,2.22,0,0,1,46.81,36.88Zm9.74,12.56a9.2,9.2,0,0,0,.9-3.36,19.1,19.1,0,0,0-.1-3.36q-.2,1.71-.4,3.36T56.55,49.43Zm7.94-6.33h.3a12.38,12.38,0,0,0,.1-1.51,12.14,12.14,0,0,1,.1-1.51h-.3q-.1.81-.15,1.51C64.5,42.07,64.48,42.57,64.48,43.1Z"/><path class="cls-1" d="M86.28,28.64a10.22,10.22,0,0,0,1.76,0,5.52,5.52,0,0,1,1.66.15q1.1.2,2.16.35a17.78,17.78,0,0,1,2.16.45,6.9,6.9,0,0,1,5,5.83,23.19,23.19,0,0,1,.25,4,32.79,32.79,0,0,1-.35,4,67.92,67.92,0,0,1-2.21,8.89A46.42,46.42,0,0,1,93,60.88q-1.31,2.21-2.76,4.27A25.09,25.09,0,0,1,87,68.92a12.92,12.92,0,0,1-4.47,2.81,18.84,18.84,0,0,1-5.07,1.1,8,8,0,0,1-6.83-3.52A15.38,15.38,0,0,1,68.85,66a25.75,25.75,0,0,1-1.05-3.67,33.72,33.72,0,0,1-.2-12.15A79.69,79.69,0,0,1,69.71,41,58.66,58.66,0,0,1,73,32.36a15.21,15.21,0,0,1,1.21-2.16q.7-1.05,1.41-2.16a5,5,0,0,1,1.86-1.86,8.07,8.07,0,0,1,2.46-.9,8.31,8.31,0,0,1,2.56-.1,13.5,13.5,0,0,1,2.26.45,2.73,2.73,0,0,1,1.21.8,1.86,1.86,0,0,1,.3,1.41ZM69.81,52.45l.9-4.52.4-2.21.4-2.21a9.91,9.91,0,0,0-.85,2.16,23,23,0,0,0-.55,2.51q-.2,1.26-.3,2.41A8.63,8.63,0,0,0,69.81,52.45Zm4.82,3.11h.1a3.08,3.08,0,0,0-.1-.9h-.1A3.08,3.08,0,0,1,74.63,55.56Zm1.1-.9a.09.09,0,0,1-.1.1,3.08,3.08,0,0,1,.1.9h.1A4.28,4.28,0,0,0,75.73,54.66Zm.7-4.72a.2.2,0,0,1-.15-.05.21.21,0,0,0-.15-.05c0,.34,0,.67-.05,1s-.08.67-.15,1h.3c.07-.33.12-.65.15-1A8.82,8.82,0,0,0,76.44,49.93Zm3.82-13.06a72.42,72.42,0,0,0-2.31,8,55.48,55.48,0,0,0-1.21,8.24,39.06,39.06,0,0,0-.1,4.87,22.39,22.39,0,0,0,.7,4.77q.3,1,.6,1.86a5.1,5.1,0,0,0,1,1.66,2.3,2.3,0,0,0,.5-.3,5.55,5.55,0,0,0,.4-.45,5.41,5.41,0,0,1,.4-.45A33,33,0,0,0,86.38,54a48.27,48.27,0,0,0,1.76-7.63,29.27,29.27,0,0,0,.05-7.83,10.47,10.47,0,0,0-.6-2.51,3.12,3.12,0,0,1-1,.5,1,1,0,0,0-.9-.15l-.9.35q-.7.4-1.56.8t-1.76-.6a.46.46,0,0,0-.5-.1A2.22,2.22,0,0,1,80.25,36.88ZM90,49.43a9.2,9.2,0,0,0,.9-3.36,19.1,19.1,0,0,0-.1-3.36q-.2,1.71-.4,3.36T90,49.43Zm7.94-6.33h.3a12.38,12.38,0,0,0,.1-1.51,12.14,12.14,0,0,1,.1-1.51h-.3Q98,40.9,98,41.6C97.95,42.07,97.93,42.57,97.93,43.1Z"/><path class="cls-1" d="M114.91,1a1.41,1.41,0,0,1,1-.5,2,2,0,0,1,1.05.4,4.76,4.76,0,0,0,1.26.6,3.67,3.67,0,0,1,1.26.7,3.62,3.62,0,0,1,1.1,1.21,2.24,2.24,0,0,1,.1,1.51q-1.11,4.82-2.06,9.54T116.71,24q-1,5.22-1.86,10.4t-1.66,10.5q-.7,4.22-1.15,8.49t-1,8.59q-.2,2-.3,3.92t-.2,3.92c-.07.67-.12,1.1-.15,1.31a5.38,5.38,0,0,1-.85,1.41c-.27.07-.45,0-.55-.35s-.32-.28-.65.05-.64.17-1.31-.1l-1,1a3.37,3.37,0,0,1-1.21-.6,9.45,9.45,0,0,0-1-.7,1.31,1.31,0,0,1-.6-1,9.41,9.41,0,0,1-.1-1.31q-.1-3-.15-6t.05-5.93q.2-3,.45-6.08t.55-6.08q.4-4.12.8-8.14t.9-8.14a112,112,0,0,1,1.56-11.25q1.05-5.52,2.26-11.15.2-1,.45-2a10.09,10.09,0,0,1,.75-2A6.59,6.59,0,0,1,112.4.52,1.52,1.52,0,0,1,113.6,0,2.92,2.92,0,0,1,114.91,1Z"/><path class="cls-1" d="M136.5,74a5.86,5.86,0,0,1-.6-.8q-.6.5-1.16.9t-1.15.9l-.3-.9h-.1l-.1.1q-.7,1.1-1,1.21a4.35,4.35,0,0,1-1.61-.2,17.82,17.82,0,0,1,.35-5.17,30.14,30.14,0,0,0,.65-5.17,19.17,19.17,0,0,0-1,5,15.18,15.18,0,0,1-1.15,5,2.24,2.24,0,0,1-1.41-1.1,2.57,2.57,0,0,1-.1-1.61q.4-3.11.8-6.13t.9-6.13q.5-2.91.75-5.83a23.68,23.68,0,0,0-.25-5.93q-.2-1.1-.5-2.26a14.08,14.08,0,0,0-.8-2.26A6.1,6.1,0,0,0,126.56,41a8.41,8.41,0,0,0-3.11-1.21,20.8,20.8,0,0,0-2.66-.4q-1.26-.1-2.66-.3l-1.66-.4-1.66-.4q-1.91-.5-2-1.91a3,3,0,0,1,1.51-3.21,11.23,11.23,0,0,1,2.91-1.1q2.51-.4,5-.75l5.07-.75q2-.2,4.12-.5t4.32-.5q.5-2.21.9-4.22t.9-4q.8-3.82,1.66-7.53t1.76-7.53q.2-.7.4-1.36t.4-1.36a1.71,1.71,0,0,1,.65-.8,1.36,1.36,0,0,1,1.26,0,3.59,3.59,0,0,0,.05.6,5.14,5.14,0,0,1,.05.8c.47-.27.7-.44.7-.5a1.57,1.57,0,0,0,.25-.65.94.94,0,0,1,.25-.55q.2-.2.6,0a1.6,1.6,0,0,0,.7.2,3.62,3.62,0,0,0,1.05.05,3.72,3.72,0,0,1,1.05.05,4.51,4.51,0,0,1,1.41.6q.6.4.2,1.51c.07,0,.1,0,.1,0s0,.05.1.05h.1a.29.29,0,0,0,.1-.2l.2-.2.2.2V7.5a19.54,19.54,0,0,1-.2,2.76q-.6,3.92-1.31,7.83l-1.41,7.83a5.8,5.8,0,0,1-.05.7,8.21,8.21,0,0,0,0,1,6.43,6.43,0,0,1,1.56-.2,6.37,6.37,0,0,0,1.56-.2q1.41-.3,2.76-.7a19.6,19.6,0,0,1,2.76-.6,13.88,13.88,0,0,1,2-.25q1,0,2-.05a11.6,11.6,0,0,1,1.91.15c.6.1,1.17.22,1.71.35a3.9,3.9,0,0,1,.3,2.76A3.56,3.56,0,0,1,162,30.35q-2.31.8-4.57,1.46t-4.57,1.36l-2.61.6q-1.31.3-2.61.5A2.1,2.1,0,0,0,145.84,36l-1.41,7q-.7,3.52-1.51,7l-4.52,21.7a6.33,6.33,0,0,1-.55,1.46A1.84,1.84,0,0,1,136.5,74Zm-3-37.16a.78.78,0,0,1-.2.15.82.82,0,0,0-.2.15q0,.4.3.4a1.1,1.1,0,0,0,.25-.15,1.18,1.18,0,0,1,.25-.15.74.74,0,0,1-.15-.2A.56.56,0,0,0,133.49,36.88Zm2.71,2.61a5.53,5.53,0,0,0,.8-1.41,4.92,4.92,0,0,0-.1-1.61c-.14.6-.25,1.14-.35,1.61S136.33,39,136.2,39.49Zm7-31.34c-.14,0-.22,0-.25-.05a.4.4,0,0,0-.25-.05q-.5,2.61-1,5.17t-1,5.17q-.5,2.61-1.1,5.22a35.21,35.21,0,0,0-.8,5.22q1.41-5.12,2.46-10.3T143.23,8.15Zm6.13,1.41A1.66,1.66,0,0,0,150,9a1.21,1.21,0,0,0,.1-.7A5.34,5.34,0,0,0,150,7.5a2.71,2.71,0,0,1-.1-.75,8.77,8.77,0,0,0-.25,1.46,9.05,9.05,0,0,1-.25,1.46V13l-.25.5-.25.5-2.11,11.75a2.37,2.37,0,0,1,0,.45,2.74,2.74,0,0,0-.05.55.67.67,0,0,0,.05.3.72.72,0,0,1,0,.3,21.37,21.37,0,0,0,.8-2.86q.3-1.46.5-2.86.4-2.21.7-4.37t.6-4.37A3.62,3.62,0,0,0,149.36,9.56Zm-.9-.1h-.1v.9h.1Z"/><path class="cls-1" d="M189,28.84q-.1.7-.15,1.31a5.23,5.23,0,0,1-.25,1.21.21.21,0,0,1,.15.05.2.2,0,0,0,.15,0,5.22,5.22,0,0,1,.5-1c.2-.3.4-.62.6-1q.6-1.1,1.05-1.16t1.26,1.05a1.35,1.35,0,0,1,1.1-.4,2.67,2.67,0,0,1,1,.4l.9.6a1.69,1.69,0,0,0,1,.3q0,.5-.05,1c0,.34-.08.7-.15,1.1q.3-.3.55-.6c.17-.2.35-.4.55-.6a1.8,1.8,0,0,1,.2.5q-.2.9-.45,1.76t-.45,1.66q-1,3.92-2.06,7.83t-2,7.83a24.09,24.09,0,0,0-.65,7.38,33.89,33.89,0,0,0,1.36,7.38,3.64,3.64,0,0,0,.85,1.46,2.59,2.59,0,0,0,1.66.65,2.34,2.34,0,0,1,1.26.6,13.28,13.28,0,0,0,1.26,1,3.53,3.53,0,0,1-3.42,2.21,8.5,8.5,0,0,0-1.51.2,5.43,5.43,0,0,1-3.92-.4,9.62,9.62,0,0,1-2.91-2.61,16.2,16.2,0,0,1-2.06-3.82,34.31,34.31,0,0,1-1.26-4.12q-.3-1.3-.6-2.56t-.6-2.76a10,10,0,0,1-.7.8,3.94,3.94,0,0,0-.5.6q-2.31,2.71-4.47,5.42t-4.47,5.32a12.87,12.87,0,0,1-2,1.81q-1.11.81-2.21,1.51a11.43,11.43,0,0,1-4.17,1.71,16.46,16.46,0,0,1-4.47.2q-6.33-.8-7.13-7.94a24.8,24.8,0,0,1-.1-5,30.32,30.32,0,0,1,.8-4.87A52.8,52.8,0,0,1,157,43.86a43,43,0,0,1,7.28-9.59,24.38,24.38,0,0,1,3-2.56,25,25,0,0,1,3.42-2.06,10.57,10.57,0,0,1,5.42-1.1,16.28,16.28,0,0,1,5.42,1.41,2.73,2.73,0,0,1,.7.5,2.65,2.65,0,0,0,.7.5,1.42,1.42,0,0,1,.6,2,3.43,3.43,0,0,1-.65,1,1.18,1.18,0,0,1-1.26.3,4,4,0,0,0-.85.1c-.3.07-.69.17-1.16.3a2.26,2.26,0,0,0-.65-.4,4.39,4.39,0,0,1-1-.6,15,15,0,0,0-2.66,1.71,20.9,20.9,0,0,0-2.36,2.21A43.48,43.48,0,0,0,165.43,48a48.45,48.45,0,0,0-4.32,12.15,12.41,12.41,0,0,0-.35,3.26,12.11,12.11,0,0,0,.45,3c.27-.2.54-.38.8-.55a3.91,3.91,0,0,0,.7-.55L166,61.59q1.61-1.81,3.21-3.82,4.92-6.33,9.19-13.11a146.8,146.8,0,0,0,7.78-14,6.74,6.74,0,0,1,1.1-1.71Q188,28,189,28.84ZM158.8,45.92a40.31,40.31,0,0,0-2.51,4.57,16,16,0,0,0-1.41,5.07Zm32.34.9a.2.2,0,0,1-.15-.05.21.21,0,0,0-.15-.05,9.89,9.89,0,0,0-.15,1.05q-.05.55-.15,1.16h.1a5.56,5.56,0,0,0,.3-1.05Q191,47.33,191.14,46.82Zm.2,3a3.61,3.61,0,0,0,.35-.4,2.59,2.59,0,0,0,.25-.4q.8-2.91,1.56-5.78t1.56-5.78a2.52,2.52,0,0,0,.1-.9,10.89,10.89,0,0,0-1.1,2.61q-.7,2.61-1.36,5.32t-1.36,5.32v1.41h.2a2.92,2.92,0,0,1-.1-.7A3,3,0,0,0,191.34,49.83Z"/><path class="cls-1" d="M232.22,30.45a9.51,9.51,0,0,1,2.76.8,2.45,2.45,0,0,1,1.26,1.41,4.94,4.94,0,0,1,.1,2.26q-.2,1.36-.6,3.37a4.15,4.15,0,0,1-1,2.11,4.25,4.25,0,0,1-1.51,1,4,4,0,0,1-1.66.25A7.12,7.12,0,0,1,230,41.4a2.41,2.41,0,0,1-1.71-1.51.59.59,0,0,0-.1-.4,5.15,5.15,0,0,0-2.71-3.31l-2-1.21q-.4-.1-.7-.2l-.7-.2a4.53,4.53,0,0,1-.65,0,4.69,4.69,0,0,0-.65-.05q-.9-.1-1.76-.15a8.85,8.85,0,0,1-1.66-.25,1.83,1.83,0,0,0-1.91,1.31,39,39,0,0,0-1.56,4.32,29.21,29.21,0,0,0-1,4.52q-.5,3.42-.9,6.73t-.7,6.73q-.3,2.71-.5,5.42t-.5,5.32a6.54,6.54,0,0,1-.1,1.16c-.07.37-.17.79-.3,1.26a1.56,1.56,0,0,0-.3-.25.73.73,0,0,1-.2-.15,1.59,1.59,0,0,0-.25.7,5.59,5.59,0,0,1-.25,1,8.36,8.36,0,0,1-.3-.85,4.54,4.54,0,0,0-.3-.75q-.5.5-1,1.05a14,14,0,0,1-1,1.05,6.17,6.17,0,0,1-.4-.7c-.27.34-.5.65-.7,1a.82.82,0,0,1-1,.25q-.8-.2-.8-.85a4,4,0,0,0-.2-1.26c-.13.34-.24.6-.3.8a2.58,2.58,0,0,1-.3.6,3.47,3.47,0,0,1-1.51-2.81q-.2-4.52-.5-8.84t-.4-8.84q-.2-5.73-.3-11.4a108.94,108.94,0,0,1,.4-11.4,16.79,16.79,0,0,1,.6-3.42,1.71,1.71,0,0,1,1.21-1.51q.2.4.4.75c.13.24.27.49.4.75a3.92,3.92,0,0,0,.25-.85,3.82,3.82,0,0,1,.25-.85,6.89,6.89,0,0,0,2.16.25,2.55,2.55,0,0,1,2,.85,2.47,2.47,0,0,1,.9,1.91c0,.54,0,1.09.05,1.66s.08,1.16.15,1.76a8.88,8.88,0,0,1,4.77-2,21.76,21.76,0,0,1,5.07.2q2.81.5,5.52.85t5.42.75h.1q.8,0,1.41.05T232.22,30.45Zm-30,12.25h-.1v.9h.2Zm8,21.29V62.39a13.18,13.18,0,0,0-.1-1.61q-.1.81-.15,1.61T209.82,64Zm0-3.62a6.69,6.69,0,0,0,.45-2.66q-.05-1.36-.05-2.76a26,26,0,0,0-.25,2.71Q210.33,59,210.23,60.38Z"/><path class="cls-1" d="M260.85,74a5.86,5.86,0,0,1-.6-.8q-.6.5-1.16.9t-1.15.9l-.3-.9h-.1l-.1.1q-.7,1.1-1,1.21a4.35,4.35,0,0,1-1.61-.2,17.82,17.82,0,0,1,.35-5.17,30.14,30.14,0,0,0,.65-5.17,19.17,19.17,0,0,0-1,5,15.18,15.18,0,0,1-1.15,5,2.24,2.24,0,0,1-1.41-1.1,2.57,2.57,0,0,1-.1-1.61q.4-3.11.8-6.13t.9-6.13q.5-2.91.75-5.83a23.68,23.68,0,0,0-.25-5.93q-.2-1.1-.5-2.26a14.08,14.08,0,0,0-.8-2.26A6.1,6.1,0,0,0,250.9,41a8.41,8.41,0,0,0-3.11-1.21,20.8,20.8,0,0,0-2.66-.4q-1.26-.1-2.66-.3l-1.66-.4-1.66-.4q-1.91-.5-2-1.91a3,3,0,0,1,1.51-3.21,11.23,11.23,0,0,1,2.91-1.1q2.51-.4,5-.75l5.07-.75q2-.2,4.12-.5t4.32-.5q.5-2.21.9-4.22t.9-4q.8-3.82,1.66-7.53t1.76-7.53q.2-.7.4-1.36t.4-1.36a1.71,1.71,0,0,1,.65-.8,1.36,1.36,0,0,1,1.26,0,3.59,3.59,0,0,0,.05.6,5.14,5.14,0,0,1,.05.8c.47-.27.7-.44.7-.5A1.57,1.57,0,0,0,269,3a.94.94,0,0,1,.25-.55q.2-.2.6,0a1.6,1.6,0,0,0,.7.2,3.62,3.62,0,0,0,1.05.05,3.72,3.72,0,0,1,1.05.05,4.51,4.51,0,0,1,1.41.6q.6.4.2,1.51c.07,0,.1,0,.1,0s0,.05.1.05h.1a.29.29,0,0,0,.1-.2l.2-.2.2.2V7.5a19.54,19.54,0,0,1-.2,2.76q-.6,3.92-1.31,7.83l-1.41,7.83a5.8,5.8,0,0,1-.05.7,8.21,8.21,0,0,0,0,1,6.43,6.43,0,0,1,1.56-.2,6.37,6.37,0,0,0,1.56-.2q1.41-.3,2.76-.7a19.6,19.6,0,0,1,2.76-.6,13.88,13.88,0,0,1,2-.25q1,0,2-.05a11.6,11.6,0,0,1,1.91.15c.6.1,1.17.22,1.71.35a3.9,3.9,0,0,1,.3,2.76,3.56,3.56,0,0,1-2.21,1.46q-2.31.8-4.57,1.46t-4.57,1.36l-2.61.6q-1.31.3-2.61.5A2.1,2.1,0,0,0,270.19,36l-1.41,7q-.7,3.52-1.51,7l-4.52,21.7a6.33,6.33,0,0,1-.55,1.46A1.84,1.84,0,0,1,260.85,74Zm-3-37.16a.78.78,0,0,1-.2.15.82.82,0,0,0-.2.15q0,.4.3.4a1.1,1.1,0,0,0,.25-.15,1.18,1.18,0,0,1,.25-.15.74.74,0,0,1-.15-.2A.56.56,0,0,0,257.83,36.88Zm2.71,2.61a5.53,5.53,0,0,0,.8-1.41,4.92,4.92,0,0,0-.1-1.61c-.14.6-.25,1.14-.35,1.61S260.68,39,260.55,39.49Zm7-31.34c-.14,0-.22,0-.25-.05a.4.4,0,0,0-.25-.05q-.5,2.61-1,5.17t-1,5.17q-.5,2.61-1.1,5.22a35.21,35.21,0,0,0-.8,5.22q1.41-5.12,2.46-10.3T267.58,8.15Zm6.13,1.41a1.66,1.66,0,0,0,.65-.6,1.21,1.21,0,0,0,.1-.7,5.34,5.34,0,0,0-.15-.75,2.71,2.71,0,0,1-.1-.75A8.77,8.77,0,0,0,274,8.2a9.05,9.05,0,0,1-.25,1.46V13l-.25.5-.25.5-2.11,11.75a2.37,2.37,0,0,1,0,.45,2.74,2.74,0,0,0-.05.55.67.67,0,0,0,.05.3.72.72,0,0,1,0,.3,21.37,21.37,0,0,0,.8-2.86q.3-1.46.5-2.86.4-2.21.7-4.37t.6-4.37A3.62,3.62,0,0,0,273.7,9.56Zm-.9-.1h-.1v.9h.1Z"/><path class="cls-1" d="M301.63,28.64a10.22,10.22,0,0,0,1.76,0,5.52,5.52,0,0,1,1.66.15q1.1.2,2.16.35a17.78,17.78,0,0,1,2.16.45,6.9,6.9,0,0,1,5,5.83,23.19,23.19,0,0,1,.25,4,32.79,32.79,0,0,1-.35,4,67.92,67.92,0,0,1-2.21,8.89,46.42,46.42,0,0,1-3.72,8.49q-1.31,2.21-2.76,4.27a25.09,25.09,0,0,1-3.26,3.77,12.92,12.92,0,0,1-4.47,2.81,18.84,18.84,0,0,1-5.07,1.1A8,8,0,0,1,286,69.32,15.38,15.38,0,0,1,284.2,66a25.75,25.75,0,0,1-1.05-3.67,33.72,33.72,0,0,1-.2-12.15A79.69,79.69,0,0,1,285.05,41a58.66,58.66,0,0,1,3.31-8.64,15.21,15.21,0,0,1,1.21-2.16q.7-1.05,1.41-2.16a5,5,0,0,1,1.86-1.86,8.07,8.07,0,0,1,2.46-.9,8.31,8.31,0,0,1,2.56-.1,13.5,13.5,0,0,1,2.26.45,2.73,2.73,0,0,1,1.21.8,1.86,1.86,0,0,1,.3,1.41ZM285.15,52.45l.9-4.52.4-2.21.4-2.21a9.91,9.91,0,0,0-.85,2.16,23,23,0,0,0-.55,2.51q-.2,1.26-.3,2.41A8.63,8.63,0,0,0,285.15,52.45ZM290,55.56h.1a3.08,3.08,0,0,0-.1-.9h-.1A3.08,3.08,0,0,1,290,55.56Zm1.1-.9a.09.09,0,0,1-.1.1,3.08,3.08,0,0,1,.1.9h.1A4.28,4.28,0,0,0,291.08,54.66Zm.7-4.72a.2.2,0,0,1-.15-.05.21.21,0,0,0-.15-.05c0,.34,0,.67-.05,1s-.08.67-.15,1h.3c.07-.33.12-.65.15-1A8.82,8.82,0,0,0,291.78,49.93Zm3.82-13.06a72.42,72.42,0,0,0-2.31,8,55.48,55.48,0,0,0-1.21,8.24A39.06,39.06,0,0,0,292,58a22.39,22.39,0,0,0,.7,4.77q.3,1,.6,1.86a5.1,5.1,0,0,0,1,1.66,2.3,2.3,0,0,0,.5-.3,5.55,5.55,0,0,0,.4-.45,5.41,5.41,0,0,1,.4-.45A33,33,0,0,0,301.73,54a48.27,48.27,0,0,0,1.76-7.63,29.27,29.27,0,0,0,.05-7.83,10.47,10.47,0,0,0-.6-2.51,3.12,3.12,0,0,1-1,.5,1,1,0,0,0-.9-.15l-.9.35q-.7.4-1.56.8t-1.76-.6a.46.46,0,0,0-.5-.1A2.22,2.22,0,0,1,295.6,36.88Zm9.74,12.56a9.2,9.2,0,0,0,.9-3.36,19.1,19.1,0,0,0-.1-3.36q-.2,1.71-.4,3.36T305.34,49.43Zm7.94-6.33h.3a12.38,12.38,0,0,0,.1-1.51,12.14,12.14,0,0,1,.1-1.51h-.3q-.1.81-.15,1.51C313.29,42.07,313.28,42.57,313.28,43.1Z"/><path class="cls-1" d="M304.54,22.18a6.8,6.8,0,0,1,.31-1.24,10.54,10.54,0,0,0,.32-1l.49-1.49a14.35,14.35,0,0,0,.4-1.54,6.72,6.72,0,0,0,.09-3.12,5.57,5.57,0,0,0-1.79-2.91.9.9,0,0,1,.05-.7,1.62,1.62,0,0,1,.46-.39l-.2-.76a.09.09,0,0,1,.13,0,.09.09,0,0,0,.13,0,1.58,1.58,0,0,1,1.33-.7,5.66,5.66,0,0,1,1.62.33,17.07,17.07,0,0,1,1.72.71,5.85,5.85,0,0,1,1.55,1.07,4.52,4.52,0,0,1,1.3,2.18,10.13,10.13,0,0,1,.23,2.33,9,9,0,0,1-.44,1.51q-.28.7-.53,1.47Q311,19.57,310,21.44a4.34,4.34,0,0,1-1,1.41,2,2,0,0,1-2.33.23,1.49,1.49,0,0,1-.46-.33.78.78,0,0,0-.5-.24,2.22,2.22,0,0,0-.43-.15Zm3.44-3,.18.09a1.11,1.11,0,0,1,.13-.5c-.12-.06-.2-.06-.22,0a.43.43,0,0,0,0,.2A.44.44,0,0,1,308,19.14Z"/></g></g></svg>