<?xml version="1.0" encoding="utf-8"?>
<!-- Generator: Adobe Illustrator 21.0.0, SVG Export Plug-In . SVG Version: 6.00 Build 0)  -->
<svg version="1.1" id="Layer_1" xmlns="http://www.w3.org/2000/svg" xmlns:xlink="http://www.w3.org/1999/xlink" x="0px" y="0px"
	 viewBox="0 0 314.6 75.5" style="enable-background:new 0 0 314.6 75.5;" xml:space="preserve">
<style type="text/css">
	.st0{fill:#FFFFFF;}
</style>
<title>tooltarto</title>
<g id="Layer_2">
	<g id="fej">
		<path class="st0" d="M46.3,6.3c0.4,0.3,0.8,0.7,0.9,1.3c0.1,0.5,0,1.1-0.3,1.6s-0.7,1-1.2,1.3s-1,0.7-1.5,1
			c-1.3,0.7-2.6,1.3-4,1.7s-2.8,0.7-4.2,1c-0.8,0.1-1.6,0.3-2.5,0.4s-1.7,0.2-2.6,0.3c-1.6,6.9-3,13.8-4.2,20.6
			c-1.2,6.9-2.5,13.7-3.9,20.6c-0.1,0.5-0.3,1-0.4,1.5s-0.2,1-0.3,1.4v0.1c-0.1,0.3-0.2,0.8-0.3,1.3c0,0.1,0,0.2,0,0.3
			s-0.1,0.2,0,0.3c-0.1,0.3-0.2,0.6-0.2,0.9V62c-0.3,0.9-0.5,1.9-0.7,2.8l-0.6,2.8c-0.2,0.9-0.5,1.8-0.9,2.6c-0.3,0.7-1,1.2-1.8,1.3
			c-0.1-0.5-0.1-1-0.1-1.5c-0.1,0-0.2,0-0.3,0.1c-0.6,0.5-1.2,1-1.9,1.4c-0.1,0.1-0.3,0-0.4-0.2s-0.3-0.3-0.4-0.2s-0.3,0.1-0.4,0.3
			c-0.1,0.2-0.3,0.3-0.4,0.4c-0.5,0.3-0.9,0.2-1.1-0.3c-0.3-0.9-0.4-1.9-0.4-2.9c-0.1,0.4-0.2,0.8-0.4,1.2c-0.1,0.3-0.2,0.5-0.3,0.7
			c-0.5-0.4-0.8-1-1.1-1.6c-0.2-0.6-0.2-1.2,0-1.9c0.1-0.4,0.1-0.7,0.1-1.1s0.1-0.7,0.1-1.1v-0.2l0.6-3c0.2-1,0.4-2,0.6-3.1
			c0.1-0.6,0.3-1.2,0.4-1.9s0.3-1.3,0.4-2c1.1-4.8,2.1-9.6,3.1-14.5l3-14.5c0.3-1.5,0.7-3,1-4.5c0.3-1.4,0.7-2.9,1-4.4
			c0.1-0.3,0.1-0.7,0.1-1c-0.9,0-1.7,0-2.6,0s-1.7,0-2.6,0c-1.7,0-3.5-0.1-5.2-0.3c-1.8-0.2-3.5-0.6-5.1-1.4
			c-0.9-0.4-1.7-0.8-2.5-1.3s-1.5-1.1-2-1.8c-0.2-0.3-0.4-0.5-0.6-0.8C0.3,10.3,0.1,10,0,9.8c0.3-0.6,0.8-1.1,1.5-1.3
			c0.7-0.1,1.3-0.1,2,0c0.9,0.1,1.8,0.2,2.7,0.2s1.8,0,2.7-0.1c4.2-0.3,8.4-0.8,12.5-1.5c4.2-0.7,8.3-1.6,12.4-2.8L36,3.7
			c0.7-0.2,1.4-0.4,2.2-0.5L39.4,3c0.4-0.1,0.7,0.2,1,0.7c0.2,0.2,0.4,0.2,0.7,0.2c0.6-0.3,1.3-0.3,1.9,0c0.6,0.3,1.2,0.5,1.8,0.6
			c0.3,0.1,0.6,0.2,0.8,0.4c0.2,0.2,0.4,0.6,0.3,0.9C45.8,5.8,46,6,46.3,6.3z"/>
		<path class="st0" d="M52.8,28.6c0.6,0.1,1.2,0.1,1.8,0c0.6,0,1.1,0,1.7,0.1c0.7,0.1,1.5,0.3,2.2,0.4s1.5,0.3,2.2,0.5
			c2.7,0.8,4.7,3.1,5,5.8c0.2,1.3,0.3,2.7,0.3,4s-0.2,2.7-0.3,4c-0.5,3-1.3,6-2.2,8.9c-1,2.9-2.2,5.8-3.7,8.5
			c-0.9,1.5-1.8,2.9-2.8,4.3s-2.1,2.6-3.3,3.8c-1.3,1.2-2.8,2.2-4.5,2.8c-1.6,0.6-3.3,1-5.1,1.2c-2.7,0.1-5.3-1.3-6.8-3.5
			c-0.7-1-1.3-2.1-1.8-3.3c-0.4-1.2-0.8-2.4-1-3.7c-0.8-4-0.9-8.1-0.2-12.2c0.5-3.1,1.2-6.2,2.1-9.2c0.9-3,2-5.9,3.3-8.6
			c0.3-0.8,0.7-1.5,1.2-2.2s0.9-1.4,1.4-2.2c0.4-0.8,1.1-1.4,1.8-1.9c0.8-0.4,1.6-0.7,2.5-0.9c0.8-0.2,1.7-0.2,2.6-0.1
			c0.8,0.1,1.5,0.2,2.3,0.5c0.5,0.2,0.9,0.4,1.2,0.8s0.4,0.9,0.3,1.4L52.8,28.6z M36.4,52.5l0.9-4.5l0.4-2.2l0.4-2.2
			c-0.4,0.7-0.7,1.4-0.8,2.2c-0.2,0.8-0.4,1.7-0.5,2.5s-0.2,1.6-0.3,2.4C36.3,51.2,36.3,51.8,36.4,52.5z M41.2,55.6L41.2,55.6
			c0.1-0.3,0.1-0.6,0-0.9h-0.1C41.2,55,41.2,55.3,41.2,55.6z M42.3,54.7C42.3,54.7,42.3,54.8,42.3,54.7
			C42.2,54.8,42.2,54.8,42.3,54.7c0,0.4,0,0.7,0,1h0.1C42.4,55.3,42.4,55,42.3,54.7L42.3,54.7z M43,49.9c-0.1,0-0.1,0-0.2,0
			c0,0-0.1-0.1-0.2,0c0,0.3,0,0.7,0,1s-0.1,0.7-0.2,1h0.3c0.1-0.3,0.1-0.7,0.2-1C43,50.5,43,50.2,43,49.9L43,49.9z M46.8,36.9
			c-0.9,2.6-1.7,5.3-2.3,8s-1,5.5-1.2,8.2c-0.1,1.6-0.2,3.2-0.1,4.9c0.1,1.6,0.3,3.2,0.7,4.8c0.2,0.7,0.4,1.3,0.6,1.9
			c0.2,0.6,0.6,1.2,1,1.7c0.2-0.1,0.4-0.2,0.5-0.3c0.1-0.1,0.3-0.3,0.4-0.4c0.1-0.2,0.3-0.3,0.4-0.4c2.7-3.3,4.8-7,6.1-11.1
			c0.8-2.5,1.4-5,1.8-7.6c0.4-2.6,0.4-5.2,0-7.8c-0.1-0.9-0.3-1.7-0.6-2.5c-0.3,0.2-0.6,0.4-1,0.5c-0.3-0.2-0.6-0.2-0.9-0.2
			l-0.9,0.3c-0.5,0.3-1,0.5-1.6,0.8s-1.2,0-1.8-0.6c-0.1-0.1-0.3-0.2-0.5-0.1C47.3,36.8,47,36.9,46.8,36.9L46.8,36.9z M56.5,49.4
			c0.5-1.1,0.8-2.2,0.9-3.4c0.1-1.1,0-2.2-0.1-3.4c-0.1,1.1-0.3,2.3-0.4,3.4C56.8,47.2,56.7,48.3,56.5,49.4L56.5,49.4z M64.5,43.1
			h0.3c0.1-0.5,0.1-1,0.1-1.5s0-1,0.1-1.5h-0.3c-0.1,0.5-0.1,1-0.2,1.5C64.5,42.1,64.5,42.6,64.5,43.1L64.5,43.1z"/>
		<path class="st0" d="M86.3,28.6c0.6,0.1,1.2,0.1,1.8,0c0.6,0,1.1,0,1.7,0.1c0.7,0.1,1.5,0.3,2.2,0.4s1.5,0.3,2.2,0.5
			c2.7,0.8,4.7,3.1,5,5.8c0.2,1.3,0.3,2.7,0.3,4s-0.2,2.7-0.3,4c-0.5,3-1.3,6-2.2,8.9c-0.9,3-2.2,5.8-3.7,8.6
			c-0.9,1.5-1.8,2.9-2.8,4.3s-2,2.6-3.2,3.8c-1.3,1.2-2.8,2.2-4.5,2.8c-1.6,0.6-3.3,1-5.1,1.1c-2.7,0.1-5.3-1.3-6.8-3.5
			c-0.7-1-1.3-2.1-1.8-3.3c-0.4-1.2-0.8-2.4-1.1-3.7c-0.8-4-0.9-8.1-0.2-12.2c0.5-3.1,1.2-6.2,2.1-9.2s2-5.9,3.3-8.6
			c0.3-0.8,0.7-1.5,1.2-2.2s0.9-1.4,1.4-2.2c0.4-0.8,1.1-1.4,1.9-1.9c0.8-0.4,1.6-0.7,2.5-0.9c0.8-0.2,1.7-0.2,2.6-0.1
			c0.8,0.1,1.5,0.2,2.3,0.5c0.5,0.2,0.9,0.4,1.2,0.8c0.3,0.4,0.4,0.9,0.3,1.4L86.3,28.6z M69.8,52.5l0.9-4.5l0.4-2.2l0.4-2.2
			c-0.4,0.7-0.7,1.4-0.8,2.2c-0.2,0.8-0.4,1.7-0.6,2.5c-0.1,0.8-0.2,1.6-0.3,2.4C69.7,51.2,69.7,51.8,69.8,52.5z M74.6,55.6
			L74.6,55.6c0.1-0.3,0.1-0.6,0-0.9h-0.1C74.6,55,74.6,55.3,74.6,55.6z M75.7,54.7C75.7,54.7,75.7,54.8,75.7,54.7
			C75.6,54.8,75.6,54.8,75.7,54.7c0,0.4,0,0.7,0,1h0.1C75.8,55.3,75.8,55,75.7,54.7z M76.4,49.9c-0.1,0-0.1,0-0.2,0
			c0,0-0.1-0.1-0.2,0c0,0.3,0,0.7-0.1,1s-0.1,0.7-0.2,1H76c0.1-0.3,0.1-0.7,0.2-1C76.4,50.5,76.4,50.2,76.4,49.9L76.4,49.9z
			 M80.2,36.9c-0.9,2.6-1.7,5.3-2.3,8c-0.6,2.7-1,5.5-1.2,8.2c-0.1,1.6-0.2,3.2-0.1,4.9c0.1,1.6,0.3,3.2,0.7,4.8
			c0.2,0.7,0.4,1.3,0.6,1.9s0.6,1.2,1,1.7c0.2-0.1,0.3-0.2,0.5-0.3c0.1-0.1,0.3-0.3,0.4-0.4c0.1-0.2,0.3-0.3,0.4-0.4
			c2.7-3.3,4.8-7,6.2-11.1c0.8-2.5,1.4-5,1.8-7.6s0.4-5.2,0.1-7.8c-0.1-0.9-0.3-1.7-0.6-2.5c-0.3,0.2-0.6,0.4-1,0.5
			c-0.3-0.2-0.6-0.2-0.9-0.2l-0.9,0.3c-0.5,0.3-1,0.5-1.6,0.8s-1.2,0.1-1.8-0.6C81.4,37,81.2,36.9,81,37
			C80.7,36.9,80.5,36.9,80.2,36.9z M90,49.4c0.5-1.1,0.8-2.2,0.9-3.4c0.1-1.1,0-2.2-0.1-3.4c-0.1,1.1-0.3,2.3-0.4,3.4
			C90.3,47.2,90.1,48.3,90,49.4z M97.9,43.1h0.3c0.1-0.5,0.1-1,0.1-1.5s0-1,0.1-1.5h-0.3c-0.1,0.5-0.1,1-0.1,1.5
			C97.9,42.1,97.9,42.6,97.9,43.1L97.9,43.1z"/>
		<path class="st0" d="M114.9,1c0.3-0.3,0.6-0.5,1-0.5s0.7,0.2,1.1,0.4c0.4,0.3,0.8,0.5,1.3,0.6s0.9,0.4,1.3,0.7
			c0.5,0.3,0.8,0.7,1.1,1.2c0.2,0.5,0.2,1,0.1,1.5c-0.7,3.2-1.4,6.4-2.1,9.5c-0.6,3.1-1.3,6.3-1.9,9.5c-0.7,3.5-1.3,6.9-1.9,10.4
			s-1.1,7-1.7,10.5c-0.5,2.8-0.8,5.6-1.2,8.5s-0.6,5.7-1,8.6c-0.1,1.3-0.2,2.6-0.3,3.9s-0.1,2.6-0.2,3.9c-0.1,0.7-0.1,1.1-0.2,1.3
			c-0.2,0.5-0.5,1-0.8,1.4c-0.3,0.1-0.4,0-0.6-0.3s-0.3-0.3-0.7,0.1s-0.6,0.2-1.3-0.1l-1,1c-0.4-0.1-0.9-0.3-1.2-0.6
			c-0.3-0.3-0.7-0.5-1-0.7s-0.6-0.6-0.6-1c-0.1-0.4-0.1-0.9-0.1-1.3c-0.1-2-0.1-4-0.2-6c0-2,0-4,0.1-5.9c0.1-2,0.3-4,0.4-6.1
			c0.2-2.1,0.4-4.1,0.6-6.1c0.3-2.7,0.5-5.5,0.8-8.1c0.3-2.7,0.6-5.4,0.9-8.1c0.3-3.8,0.9-7.5,1.6-11.3c0.7-3.7,1.5-7.4,2.3-11.1
			c0.1-0.7,0.3-1.3,0.4-2c0.2-0.7,0.4-1.4,0.8-2c0.4-0.9,1-1.6,1.7-2.2c0.3-0.3,0.7-0.5,1.2-0.5C114.1,0.2,114.6,0.5,114.9,1z"/>
		<path class="st0" d="M136.5,74c-0.2-0.2-0.4-0.5-0.6-0.8c-0.4,0.3-0.8,0.6-1.2,0.9s-0.8,0.6-1.1,0.9l-0.3-0.9h-0.1l-0.1,0.1
			c-0.5,0.7-0.8,1.1-1,1.2c-0.5,0-1.1,0-1.6-0.2c-0.1-1.7,0-3.5,0.4-5.2s0.6-3.4,0.6-5.2c-0.6,1.6-0.9,3.3-1,5s-0.5,3.4-1.1,5
			c-0.6-0.2-1.1-0.6-1.4-1.1c-0.2-0.5-0.2-1.1-0.1-1.6c0.3-2.1,0.5-4.1,0.8-6.1s0.6-4.1,0.9-6.1c0.3-1.9,0.6-3.9,0.8-5.8
			c0.2-2,0.1-4-0.3-5.9c-0.1-0.7-0.3-1.5-0.5-2.3s-0.5-1.5-0.8-2.3c-0.5-1.1-1.2-2-2.2-2.6c-0.9-0.6-2-1-3.1-1.2
			c-0.9-0.2-1.8-0.3-2.7-0.4c-0.8-0.1-1.7-0.2-2.7-0.3l-1.7-0.4l-1.7-0.4c-1.3-0.3-1.9-1-2-1.9c-0.3-1.3,0.4-2.6,1.5-3.2
			c0.9-0.5,1.9-0.9,2.9-1.1c1.7-0.3,3.3-0.5,5-0.8l5.1-0.8c1.3-0.1,2.7-0.3,4.1-0.5s2.9-0.4,4.3-0.5c0.3-1.5,0.6-2.9,0.9-4.2
			s0.6-2.7,0.9-4c0.5-2.5,1.1-5.1,1.7-7.5s1.2-5,1.8-7.5c0.1-0.5,0.3-0.9,0.4-1.4s0.3-0.9,0.4-1.4c0.1-0.3,0.4-0.6,0.6-0.8
			c0.4-0.2,0.9-0.2,1.3,0c0,0.2,0,0.4,0.1,0.6c0,0.3,0.1,0.5,0.1,0.8c0.5-0.3,0.7-0.4,0.7-0.5c0.1-0.2,0.2-0.4,0.3-0.7
			c0-0.2,0.1-0.4,0.3-0.5c0.1-0.1,0.3-0.1,0.6,0c0.2,0.1,0.5,0.2,0.7,0.2c0.3,0.1,0.7,0.1,1.1,0c0.4,0,0.7,0,1.1,0
			c0.5,0.1,1,0.3,1.4,0.6s0.5,0.8,0.2,1.5c0.1,0,0.1,0,0.1,0s0,0.1,0.1,0.1h0.1c0.1-0.1,0.1-0.1,0.1-0.2l0.2-0.2l0.2,0.2v2.8
			c0,0.9-0.1,1.8-0.2,2.8c-0.4,2.6-0.8,5.2-1.3,7.8l-1.4,7.8c0,0.2,0,0.5-0.1,0.7c0,0.3,0,0.7,0,1c0.5-0.1,1-0.2,1.6-0.2
			c0.5,0,1.1-0.1,1.6-0.2c0.9-0.2,1.9-0.4,2.8-0.7c0.9-0.3,1.8-0.5,2.8-0.6c0.7-0.1,1.3-0.2,2-0.3c0.7,0,1.3,0,2,0
			c0.6,0,1.3,0,1.9,0.1c0.6,0.1,1.2,0.2,1.7,0.4c0.4,0.9,0.5,1.8,0.3,2.8c-0.6,0.8-1.4,1.3-2.4,1.5c-1.5,0.5-3.1,1-4.6,1.5
			c-1.5,0.4-3,0.9-4.6,1.4l-2.6,0.6c-0.9,0.2-1.7,0.4-2.6,0.5c-0.9,0.1-1.6,0.8-1.8,1.7l-1.4,7c-0.5,2.3-1,4.7-1.5,7l-4.5,21.7
			c-0.1,0.5-0.3,1-0.6,1.5C137.6,73.6,137.1,73.9,136.5,74z M133.5,36.8c-0.1,0.1-0.1,0.1-0.2,0.2c-0.1,0-0.1,0.1-0.2,0.2
			c0,0.3,0.1,0.4,0.3,0.4c0.1,0,0.2-0.1,0.3-0.2c0.1-0.1,0.2-0.1,0.3-0.2c-0.1-0.1-0.1-0.1-0.1-0.2C133.7,37,133.6,36.9,133.5,36.8
			L133.5,36.8z M136.2,39.5c0.3-0.4,0.6-0.9,0.8-1.4c0.1-0.5,0-1.1-0.1-1.6c-0.1,0.6-0.3,1.1-0.4,1.6S136.3,39,136.2,39.5
			L136.2,39.5z M143.2,8.1c-0.1,0-0.2,0-0.3-0.1c-0.1,0-0.2-0.1-0.3-0.1c-0.3,1.7-0.7,3.5-1,5.2s-0.7,3.4-1,5.2
			c-0.3,1.7-0.7,3.5-1.1,5.2c-0.4,1.7-0.7,3.5-0.8,5.2c0.9-3.4,1.8-6.8,2.5-10.3C142,15,142.6,11.6,143.2,8.1L143.2,8.1z M149.3,9.5
			c0.3-0.1,0.5-0.3,0.7-0.5c0.1-0.2,0.1-0.5,0.1-0.7c0-0.3,0-0.5-0.1-0.8c-0.1-0.2-0.1-0.5-0.1-0.8c-0.1,0.5-0.2,1-0.3,1.5
			c0,0.5-0.1,1-0.3,1.5V13l-0.3,0.5l-0.3,0.5l-2.1,11.8c0,0.1,0,0.3,0,0.5s-0.1,0.4-0.1,0.5s0,0.2,0.1,0.3c0,0.1,0,0.2,0,0.3
			c0.3-0.9,0.6-1.9,0.8-2.9s0.4-1.9,0.5-2.9c0.3-1.5,0.5-2.9,0.7-4.4c0.2-1.4,0.4-2.9,0.6-4.4C149.9,11.8,149.9,10.6,149.3,9.5
			L149.3,9.5z M148.4,9.4h-0.1v0.9h0.1V9.4z"/>
		<path class="st0" d="M189,28.8c-0.1,0.5-0.1,0.9-0.1,1.3s-0.1,0.8-0.3,1.2c0.1,0,0.1,0,0.1,0h0.1c0.1-0.4,0.3-0.7,0.5-1
			s0.4-0.6,0.6-1c0.4-0.7,0.8-1.1,1.1-1.2c0.3,0,0.7,0.3,1.3,1c0.3-0.3,0.7-0.4,1.1-0.4c0.4,0.1,0.7,0.2,1,0.4l0.9,0.6
			c0.3,0.2,0.6,0.3,1,0.3c0,0.3,0,0.7-0.1,1c0,0.3-0.1,0.7-0.1,1.1c0.2-0.2,0.4-0.4,0.6-0.6c0.2-0.2,0.4-0.4,0.6-0.6
			c0.1,0.2,0.2,0.3,0.2,0.5c-0.1,0.6-0.3,1.2-0.4,1.8c-0.2,0.6-0.3,1.1-0.4,1.7c-0.7,2.6-1.4,5.2-2.1,7.8c-0.7,2.6-1.4,5.2-2,7.8
			c-0.6,2.4-0.8,4.9-0.6,7.4s0.6,5,1.4,7.4c0.2,0.5,0.5,1,0.9,1.5c0.5,0.4,1,0.6,1.7,0.7c0.5,0.1,0.9,0.3,1.3,0.6
			c0.4,0.4,0.8,0.7,1.3,1c-0.6,1.4-1.9,2.3-3.4,2.2c-0.5,0-1,0.1-1.5,0.2c-1.3,0.4-2.7,0.2-3.9-0.4c-1.1-0.7-2.1-1.6-2.9-2.6
			c-0.9-1.2-1.5-2.5-2.1-3.8c-0.5-1.3-0.9-2.7-1.3-4.1c-0.2-0.9-0.4-1.7-0.6-2.6c-0.2-0.8-0.4-1.8-0.6-2.8c-0.2,0.3-0.5,0.5-0.7,0.8
			c-0.2,0.2-0.4,0.4-0.5,0.6c-1.5,1.8-3,3.6-4.5,5.4c-1.4,1.8-2.9,3.6-4.5,5.3c-0.6,0.7-1.3,1.3-2,1.8s-1.5,1-2.2,1.5
			c-1.3,0.8-2.7,1.4-4.2,1.7c-1.5,0.3-3,0.3-4.5,0.2c-4.2-0.5-6.6-3.2-7.1-7.9c-0.2-1.7-0.2-3.3-0.1-5c0.1-1.6,0.4-3.3,0.8-4.9
			c1.1-3.8,2.6-7.5,4.5-11c2-3.5,4.4-6.8,7.3-9.6c0.9-0.9,1.9-1.8,3-2.6c1.1-0.8,2.2-1.5,3.4-2.1c1.7-0.8,3.5-1.2,5.4-1.1
			c1.9,0.2,3.7,0.6,5.4,1.4c0.3,0.1,0.5,0.3,0.7,0.5s0.4,0.4,0.7,0.5c0.7,0.3,1,1.2,0.7,1.9c0,0,0,0.1-0.1,0.1
			c-0.2,0.4-0.4,0.7-0.6,1c-0.3,0.3-0.8,0.5-1.3,0.3c-0.3,0-0.6,0-0.9,0.1c-0.3,0.1-0.7,0.2-1.2,0.3c-0.2-0.2-0.4-0.3-0.6-0.4
			c-0.4-0.2-0.7-0.4-1-0.6c-0.9,0.5-1.8,1-2.7,1.7c-0.8,0.7-1.6,1.4-2.4,2.2c-3,3.1-5.5,6.6-7.5,10.4c-2,3.8-3.4,7.9-4.3,12.2
			c-0.3,1.1-0.4,2.2-0.4,3.3c0,1,0.2,2,0.4,3c0.3-0.2,0.5-0.4,0.8-0.6s0.5-0.3,0.7-0.6l3.3-3.7c1.1-1.2,2.1-2.5,3.2-3.8
			c3.3-4.2,6.3-8.6,9.2-13.1c2.8-4.5,5.4-9.2,7.8-14c0.3-0.6,0.6-1.2,1.1-1.7C187.8,28.3,188.3,28.3,189,28.8z M158.8,45.9
			c-0.9,1.5-1.8,3-2.5,4.6s-1.2,3.3-1.4,5.1L158.8,45.9z M191.1,46.8c-0.1,0-0.1,0-0.1,0s-0.1-0.1-0.1,0c-0.1,0.3-0.1,0.7-0.1,1
			c0,0.4-0.1,0.8-0.1,1.2h0.1c0.1-0.3,0.2-0.7,0.3-1C191,47.5,191,47.2,191.1,46.8z M191.3,49.8c0.1-0.1,0.2-0.3,0.4-0.4
			c0.1-0.1,0.2-0.3,0.3-0.4c0.5-1.9,1.1-3.9,1.6-5.8s1-3.8,1.6-5.8c0.1-0.3,0.1-0.6,0.1-0.9c-0.5,0.8-0.8,1.7-1.1,2.6
			c-0.5,1.7-0.9,3.5-1.4,5.3C192.3,46.3,191.8,48.1,191.3,49.8v1.4h0.2c-0.1-0.2-0.1-0.5-0.1-0.7S191.4,50.1,191.3,49.8L191.3,49.8z
			"/>
		<path class="st0" d="M232.2,30.5c1,0.1,1.9,0.4,2.8,0.8c0.6,0.3,1,0.8,1.3,1.4c0.2,0.7,0.2,1.5,0.1,2.3c-0.1,0.9-0.3,2-0.6,3.4
			c-0.1,0.8-0.5,1.5-1,2.1c-0.4,0.4-0.9,0.8-1.5,1c-0.5,0.2-1.1,0.3-1.7,0.3c-0.5,0-1.1-0.1-1.6-0.2c-0.8-0.2-1.4-0.8-1.7-1.5
			c0-0.1,0-0.3-0.1-0.4c-0.4-1.4-1.4-2.7-2.7-3.3l-2-1.2c-0.3-0.1-0.5-0.1-0.7-0.2l-0.7-0.2c-0.2,0-0.4,0-0.6,0c-0.2,0-0.4,0-0.6,0
			c-0.6-0.1-1.2-0.1-1.8-0.2c-0.6,0-1.1-0.1-1.7-0.3c-0.9-0.1-1.7,0.5-1.9,1.3c-0.6,1.4-1.1,2.9-1.6,4.3c-0.5,1.5-0.8,3-1,4.5
			c-0.3,2.3-0.6,4.5-0.9,6.7s-0.5,4.4-0.7,6.7c-0.2,1.8-0.4,3.6-0.5,5.4s-0.3,3.6-0.5,5.3c0,0.4,0,0.8-0.1,1.2
			c-0.1,0.4-0.2,0.8-0.3,1.3c-0.1-0.1-0.2-0.2-0.3-0.3c-0.1,0-0.1-0.1-0.2-0.2c-0.1,0.2-0.2,0.5-0.3,0.7c-0.1,0.3-0.1,0.7-0.3,1
			c-0.1-0.3-0.2-0.6-0.3-0.8c-0.1-0.3-0.2-0.5-0.3-0.8c-0.3,0.3-0.7,0.7-1,1.1s-0.6,0.7-1,1.1c-0.1-0.2-0.3-0.5-0.4-0.7
			c-0.3,0.3-0.5,0.7-0.7,1s-0.6,0.4-1,0.3c-0.5-0.1-0.8-0.4-0.8-0.8s-0.1-0.9-0.2-1.3c-0.1,0.3-0.2,0.6-0.3,0.8
			c-0.1,0.2-0.2,0.4-0.3,0.6c-0.9-0.6-1.5-1.7-1.5-2.8c-0.1-3-0.3-6-0.5-8.8c-0.2-2.9-0.3-5.8-0.4-8.8c-0.1-3.8-0.2-7.6-0.3-11.4
			c-0.1-3.8,0.1-7.6,0.4-11.4c0.1-1.2,0.3-2.3,0.6-3.4c0.1-0.7,0.5-1.3,1.2-1.5c0.1,0.3,0.3,0.5,0.4,0.8c0.1,0.2,0.3,0.5,0.4,0.8
			c0.1-0.3,0.2-0.6,0.3-0.9s0.1-0.6,0.3-0.9c0.7,0.2,1.4,0.3,2.2,0.3s1.5,0.3,2,0.9c0.6,0.5,0.9,1.2,0.9,1.9c0,0.5,0,1.1,0.1,1.7
			s0.1,1.2,0.1,1.8c1.4-1.1,3-1.8,4.8-2c1.7-0.1,3.4-0.1,5.1,0.2c1.9,0.3,3.7,0.6,5.5,0.9s3.6,0.5,5.4,0.8h0.1c0.5,0,1,0,1.4,0
			C231.3,30.4,231.8,30.4,232.2,30.5z M202.2,42.7h-0.1v0.9h0.2L202.2,42.7z M210.2,64v-1.6c0-0.5,0-1.1-0.1-1.6
			c-0.1,0.5-0.1,1.1-0.1,1.6s-0.1,1.1-0.1,1.6H210.2z M210.2,60.4c0.3-0.8,0.5-1.8,0.4-2.7c0-0.9-0.1-1.8-0.1-2.8
			c-0.1,0.9-0.2,1.8-0.3,2.7C210.3,58.6,210.3,59.5,210.2,60.4L210.2,60.4z"/>
		<path class="st0" d="M260.9,74c-0.2-0.2-0.4-0.5-0.6-0.8c-0.4,0.3-0.8,0.6-1.2,0.9c-0.4,0.3-0.8,0.6-1.1,0.9l-0.3-0.9h-0.1
			l-0.1,0.1c-0.5,0.7-0.8,1.1-1,1.2c-0.5,0-1.1,0-1.6-0.2c-0.1-1.7,0-3.5,0.4-5.2s0.6-3.4,0.6-5.2c-0.6,1.6-0.9,3.3-1,5
			s-0.5,3.4-1.1,5c-0.6-0.2-1.1-0.6-1.4-1.1c-0.2-0.5-0.2-1.1-0.1-1.6c0.3-2.1,0.5-4.1,0.8-6.1s0.6-4.1,0.9-6.1
			c0.3-1.9,0.6-3.9,0.8-5.8c0.2-2,0.1-4-0.3-5.9c-0.1-0.7-0.3-1.5-0.5-2.3s-0.5-1.5-0.8-2.3c-0.5-1.1-1.2-2-2.2-2.6
			c-0.9-0.6-2-1-3.1-1.2c-0.9-0.2-1.8-0.3-2.7-0.4c-0.8-0.1-1.7-0.2-2.7-0.3l-1.7-0.4l-1.7-0.4c-1.3-0.3-1.9-1-2-1.9
			c-0.3-1.3,0.4-2.6,1.5-3.2c0.9-0.5,1.9-0.9,2.9-1.1c1.7-0.3,3.3-0.5,5-0.8l5.1-0.8c1.3-0.1,2.7-0.3,4.1-0.5s2.9-0.4,4.3-0.5
			c0.3-1.5,0.6-2.9,0.9-4.2s0.6-2.7,0.9-4c0.5-2.5,1.1-5.1,1.7-7.5s1.2-5,1.8-7.5c0.1-0.5,0.3-0.9,0.4-1.4c0.1-0.4,0.3-0.9,0.4-1.4
			c0.1-0.3,0.4-0.6,0.6-0.8c0.4-0.2,0.9-0.2,1.3,0c0,0.2,0,0.4,0,0.6c0,0.3,0.1,0.5,0,0.8c0.5-0.3,0.7-0.4,0.7-0.5
			c0.1-0.2,0.2-0.4,0.2-0.7c0-0.2,0.1-0.4,0.3-0.5c0.1-0.1,0.3-0.1,0.6,0c0.2,0.1,0.5,0.2,0.7,0.2c0.3,0.1,0.7,0.1,1,0
			c0.4,0,0.7,0,1,0c0.5,0.1,1,0.3,1.4,0.6s0.5,0.8,0.2,1.5c0.1,0,0.1,0,0.1,0s0,0.1,0.1,0.1h0.1c0.1-0.1,0.1-0.1,0.1-0.2l0.2-0.2
			l0.2,0.2v2.8c0,0.9-0.1,1.8-0.2,2.8c-0.4,2.6-0.8,5.2-1.3,7.8l-1.4,7.8c0,0.2,0,0.5,0,0.7c0,0.3,0,0.7,0,1c0.5-0.1,1-0.2,1.6-0.2
			c0.5,0,1.1-0.1,1.6-0.2c0.9-0.2,1.9-0.4,2.8-0.7c0.9-0.3,1.8-0.5,2.8-0.6c0.7-0.1,1.3-0.2,2-0.3c0.7,0,1.3,0,2,0
			c0.6,0,1.3,0,1.9,0.1s1.2,0.2,1.7,0.4c0.4,0.9,0.5,1.8,0.3,2.8c-0.5,0.8-1.3,1.3-2.2,1.5c-1.5,0.5-3.1,1-4.6,1.5
			c-1.5,0.4-3,0.9-4.6,1.4l-2.6,0.6c-0.9,0.2-1.7,0.4-2.6,0.5c-1,0.1-1.7,0.8-1.9,1.7l-1.4,7c-0.5,2.3-1,4.7-1.5,7l-4.5,21.7
			c-0.1,0.5-0.3,1-0.5,1.5C261.9,73.6,261.4,73.9,260.9,74z M257.9,36.8c-0.1,0.1-0.1,0.1-0.2,0.2c-0.1,0-0.1,0.1-0.2,0.2
			c0,0.3,0.1,0.4,0.3,0.4c0.1,0,0.2-0.1,0.3-0.2c0.1-0.1,0.2-0.1,0.3-0.2c-0.1-0.1-0.1-0.1-0.1-0.2C258,37,257.9,36.9,257.9,36.8
			L257.9,36.8z M260.6,39.5c0.3-0.4,0.6-0.9,0.8-1.4c0.1-0.5,0-1.1-0.1-1.6c-0.1,0.6-0.3,1.1-0.4,1.6S260.7,39,260.6,39.5
			L260.6,39.5z M267.6,8.1c-0.1,0-0.2,0-0.3-0.1c-0.1,0-0.2-0.1-0.3-0.1c-0.3,1.7-0.7,3.5-1,5.2s-0.7,3.4-1,5.2
			c-0.3,1.7-0.7,3.5-1.1,5.2s-0.7,3.5-0.8,5.2c0.9-3.4,1.8-6.8,2.5-10.3S267,11.6,267.6,8.1L267.6,8.1z M273.7,9.5
			c0.3-0.1,0.5-0.3,0.6-0.6c0.1-0.2,0.1-0.5,0.1-0.7c0-0.3-0.1-0.5-0.1-0.8c-0.1-0.2-0.1-0.5-0.1-0.8c-0.1,0.5-0.2,1-0.2,1.5
			S273.9,9.1,273.7,9.5V13l-0.3,0.5l-0.3,0.5L271,25.8c0,0.1,0,0.3,0,0.5s-0.1,0.4,0,0.5c0,0.1,0,0.2,0,0.3c0,0.1,0,0.2,0,0.3
			c0.3-0.9,0.6-1.9,0.8-2.9c0.2-1,0.4-1.9,0.5-2.9c0.3-1.5,0.5-2.9,0.7-4.4s0.4-2.9,0.6-4.4C274.3,11.8,274.3,10.6,273.7,9.5
			L273.7,9.5z M272.8,9.4h-0.1v0.9h0.1V9.4z"/>
		<path class="st0" d="M301.6,28.6c0.6,0.1,1.2,0.1,1.8,0c0.6,0,1.1,0,1.7,0.1c0.7,0.1,1.5,0.3,2.2,0.4s1.5,0.3,2.2,0.5
			c2.7,0.8,4.7,3.1,5,5.8c0.2,1.3,0.3,2.7,0.3,4s-0.2,2.7-0.4,4c-0.5,3-1.3,6-2.2,8.9c-1,2.9-2.2,5.8-3.7,8.5
			c-0.9,1.5-1.8,2.9-2.8,4.3s-2.1,2.6-3.3,3.8c-1.3,1.2-2.8,2.2-4.5,2.8c-1.6,0.6-3.3,1-5.1,1.1c-2.7,0.1-5.2-1.2-6.8-3.4
			c-0.7-1-1.3-2.1-1.8-3.3c-0.4-1.2-0.8-2.4-1-3.7c-0.8-4-0.9-8.1-0.2-12.2c0.5-3.1,1.2-6.2,2.1-9.2s2-5.9,3.3-8.6
			c0.3-0.8,0.7-1.5,1.2-2.2s0.9-1.4,1.4-2.2c0.4-0.8,1.1-1.4,1.9-1.9c0.8-0.4,1.6-0.7,2.5-0.9c0.8-0.2,1.7-0.2,2.6-0.1
			c0.8,0.1,1.5,0.2,2.3,0.5c0.5,0.2,0.9,0.4,1.2,0.8c0.3,0.4,0.4,0.9,0.3,1.4L301.6,28.6z M285.1,52.5L286,48l0.4-2.2l0.4-2.2
			c-0.4,0.7-0.7,1.4-0.9,2.2c-0.2,0.8-0.4,1.7-0.5,2.5s-0.2,1.6-0.3,2.4C285.1,51.2,285.1,51.8,285.1,52.5z M290,55.6h0.1
			c0-0.3,0-0.6-0.1-0.9h-0.1C290,55,290,55.3,290,55.6z M291.1,54.7C291.1,54.7,291.1,54.8,291.1,54.7c-0.1,0.1-0.1,0.1-0.1,0.1
			c0.1,0.3,0.1,0.6,0.1,0.9h0.1C291.2,55.3,291.2,55,291.1,54.7L291.1,54.7z M291.8,49.9c-0.1,0-0.1,0-0.1,0s-0.1-0.1-0.1,0
			c0,0.3,0,0.7,0,1s-0.1,0.7-0.1,1h0.3c0.1-0.3,0.1-0.7,0.1-1C291.8,50.5,291.8,50.2,291.8,49.9L291.8,49.9z M295.6,36.9
			c-0.9,2.6-1.7,5.3-2.3,8c-0.6,2.7-1,5.5-1.2,8.2c-0.1,1.6-0.2,3.3-0.1,4.9c0.1,1.6,0.3,3.2,0.7,4.8c0.2,0.7,0.4,1.3,0.6,1.9
			s0.6,1.2,1,1.7c0.2-0.1,0.3-0.2,0.5-0.3c0.1-0.1,0.3-0.3,0.4-0.4c0.1-0.2,0.3-0.3,0.4-0.4c2.7-3.3,4.8-7,6.1-11.1
			c0.8-2.5,1.4-5,1.8-7.6s0.4-5.2,0-7.8c-0.1-0.9-0.3-1.7-0.6-2.5c-0.3,0.2-0.6,0.4-1,0.5c-0.3-0.2-0.6-0.2-0.9-0.2l-0.9,0.3
			c-0.5,0.3-1,0.5-1.6,0.8s-1.2,0.1-1.8-0.6c-0.1-0.1-0.3-0.2-0.5-0.1C296.1,36.9,295.8,36.9,295.6,36.9L295.6,36.9z M305.4,49.4
			c0.5-1.1,0.8-2.2,0.9-3.4c0.1-1.1,0-2.2-0.1-3.4c-0.1,1.1-0.3,2.3-0.4,3.4C305.6,47.2,305.5,48.3,305.4,49.4L305.4,49.4z
			 M313.3,43.1h0.3c0.1-0.5,0.1-1,0.1-1.5s0-1,0.1-1.5h-0.3c-0.1,0.5-0.1,1-0.1,1.5C313.3,42.1,313.3,42.6,313.3,43.1L313.3,43.1z"
			/>
		<path class="st0" d="M304.5,22.2c0.1-0.4,0.2-0.8,0.3-1.2c0.1-0.3,0.2-0.7,0.3-1l0.5-1.5c0.2-0.5,0.3-1,0.4-1.5
			c0.3-1,0.3-2.1,0.1-3.1c-0.3-1.1-0.9-2.2-1.8-2.9c-0.1-0.2-0.1-0.5,0-0.7s0.3-0.3,0.5-0.4L304.7,9h0.1l0,0h0.1l0,0
			c0.3-0.4,0.8-0.7,1.3-0.7c0.6,0,1.1,0.1,1.6,0.3c0.6,0.2,1.2,0.4,1.7,0.7c0.6,0.3,1.1,0.6,1.5,1.1c0.6,0.6,1.1,1.3,1.3,2.2
			c0.2,0.8,0.2,1.5,0.2,2.3c-0.1,0.5-0.2,1-0.4,1.5c-0.2,0.5-0.4,1-0.5,1.5c-0.5,1.1-1,2.3-1.7,3.5c-0.2,0.5-0.6,1-1,1.4
			c-0.6,0.6-1.6,0.7-2.3,0.2c-0.2-0.1-0.3-0.2-0.5-0.3c-0.1-0.1-0.3-0.2-0.5-0.2c-0.1-0.1-0.3-0.1-0.4-0.1L304.5,22.2z M308,19.2
			l0.2,0.1c0-0.2,0-0.3,0.1-0.5c-0.1-0.1-0.2-0.1-0.2,0s0,0.1,0,0.2C308.1,19,308,19.1,308,19.2L308,19.2z"/>
	</g>
</g>
</svg>
